<?xml version="1.0" encoding="UTF-8"?>
<svg width="283pt" xmlns:xlink="http://www.w3.org/1999/xlink" xmlns="http://www.w3.org/2000/svg" height="36pt" viewBox="0 0 283 36" >
 <g transform="translate(30.8467, 0.796875)" style="fill:#161413; fill-rule:nonzero; stroke:none; stroke-width:1; stroke-linecap:butt; stroke-linejoin:miter; stroke-dasharray:none;" >
  <path d="M115.987 27.1445 C115.893 28.3301 115.767 29.0625 115.609 29.3418 C115.451 29.6201 114.887 29.7597 114.438 29.7597 C113.965 29.7597 113.661 29.582 113.529 29.2256 C113.397 28.8701 113.38 28.081 113.476 26.8594 C113.56 25.792 113.716 24.9736 113.946 24.4043 C114.174 23.8349 115.466 19.1914 116.681 18.3486 C116.681 18.3486 115.987 27.1445 115.987 27.1445 Z M114.596 12.6719 C114.699 11.372 114.821 10.5664 114.965 10.2558 C115.106 9.94633 115.68 9.79002 116.168 9.79002 C116.593 9.79002 117.142 9.97462 117.297 10.3427 C117.452 10.7109 117.481 11.5029 117.385 12.7187 C117.308 13.6894 117.174 14.334 116.983 14.6543 C116.791 14.9736 115.216 15.5967 112.777 16.5234 C110.498 17.3799 108.983 19.0166 108.375 19.6572 C107.764 20.2998 107.15 24.5576 107.01 26.3271 C107.01 26.3271 106.857 28.2705 106.857 28.2705 C106.668 30.6592 107.073 32.207 108.073 32.914 C109.072 33.6211 110.204 33.9746 111.467 33.9746 C112.433 33.9746 113.281 33.7617 114.012 33.334 C114.744 32.9052 115.364 32.2646 115.873 31.4072 C115.873 31.4072 115.705 33.5312 115.705 33.5312 C115.705 33.5312 122.694 33.5312 122.694 33.5312 C122.694 33.5312 123.94 17.7529 123.94 17.7529 C124.248 13.8535 124.325 11.2783 124.174 10.0273 C124.023 8.77735 123.363 7.72265 122.194 6.86329 C121.025 6.0039 119.221 5.57421 116.784 5.57421 C114.749 5.57421 113.066 5.95312 111.733 6.70997 C110.401 7.46583 109.485 8.33789 108.985 9.32522 C108.485 10.3125 108.163 11.7168 108.019 13.5371 C108.019 13.5371 107.96 14.5801 107.96 14.5801 C107.96 14.5801 114.468 14.5801 114.468 14.5801 C114.468 14.5801 114.596 12.6719 114.596 12.6719 Z M30.0312 27.291 C29.9512 28.3066 29.832 28.9677 29.6748 29.2744 C29.5166 29.581 28.9697 29.7353 28.5527 29.7353 C28.1474 29.7353 27.6279 29.5664 27.5166 29.2304 C27.4033 28.8945 27.3906 28.1709 27.4785 27.0605 C27.4785 27.0605 28.6269 12.5117 28.6269 12.5117 C28.7217 11.3066 28.8515 10.5478 29.0156 10.2353 C29.1787 9.92193 29.7285 9.76562 30.1465 9.76562 C30.5644 9.76562 31.083 9.92193 31.1855 10.2353 C31.289 10.5478 31.2929 11.3066 31.1982 12.5117 C31.1982 12.5117 30.0312 27.291 30.0312 27.291 Z M37.958 10.5322 C37.792 9.71382 37.4248 8.91895 36.8564 8.14747 C36.289 7.37696 35.4463 6.75098 34.3281 6.2705 C33.2099 5.79003 31.8437 5.5498 30.2304 5.5498 C28.3086 5.5498 26.7021 5.92285 25.4101 6.66992 C24.1162 7.417 23.1846 8.40821 22.6133 9.64162 C22.041 10.876 21.6689 12.5888 21.4961 14.7832 C21.4961 14.7832 20.708 24.7705 20.708 24.7705 C20.5488 26.7754 20.5605 28.2793 20.7422 29.2802 C20.9238 30.2832 21.292 31.1367 21.8476 31.8427 C22.4023 32.5478 23.2178 33.0761 24.2939 33.4258 C25.3681 33.7754 26.7021 33.9511 28.291 33.9511 C29.7148 33.9511 30.9912 33.7461 32.1201 33.3369 C33.25 32.9277 34.1972 32.2929 34.9658 31.4336 C35.7334 30.5742 36.2627 29.6484 36.5547 28.6572 C36.8457 27.6679 37.0762 26.1113 37.2441 23.9873 C37.2441 23.9873 38.0107 14.2676 38.0107 14.2676 C38.1435 12.5957 38.125 11.3496 37.958 10.5322 Z M85.2993 14.374 C85.2993 14.374 85.4323 12.6767 85.4323 12.6767 C85.5363 11.3711 85.6413 10.7871 85.7813 10.4892 C85.9213 10.1924 86.5083 9.82612 86.9953 9.82612 C87.3893 9.82612 87.8813 10.2187 87.9803 10.5683 C88.0813 10.9189 88.0983 11.4756 88.0043 12.6767 C88.0043 12.6767 87.8703 14.374 87.8703 14.374 C87.8703 14.374 85.2993 14.374 85.2993 14.374 Z M94.7623 15.1269 C94.9433 12.8379 94.8193 11.0625 94.3913 9.79883 C93.9643 8.53614 93.1263 7.52148 91.8773 6.75782 C90.6283 5.99317 88.9973 5.60938 86.9833 5.60938 C85.3363 5.60938 83.8523 5.92675 82.5353 6.56152 C81.2173 7.19628 80.2323 8.10938 79.5823 9.30172 C78.9313 10.4941 78.5243 12.1211 78.3623 14.1855 C78.3623 14.1855 77.5073 25.0088 77.5073 25.0088 C77.3693 26.7636 77.3873 28.1015 77.5633 29.0205 C77.7393 29.9394 78.1203 30.7822 78.7063 31.5469 C79.2913 32.3125 80.1463 32.914 81.2733 33.3535 C82.4003 33.791 83.7213 34.0107 85.2393 34.0107 C86.8023 34.0107 88.1203 33.7871 89.1923 33.3418 C90.2633 32.8955 91.1733 32.2265 91.9193 31.334 C92.6643 30.4404 93.1603 29.6015 93.4063 28.8164 C93.6523 28.0312 93.8333 26.9072 93.9483 25.4424 C93.9483 25.4424 94.3973 19.7549 94.3973 19.7549 C94.3973 19.7549 87.8343 19.7549 87.8343 19.7549 C87.8343 19.7549 87.2763 26.8066 87.2763 26.8066 C87.1843 27.9814 87.0253 28.7695 86.8193 29.1816 C86.4953 29.8281 85.9723 29.7949 85.4393 29.7949 C85.0093 29.7949 84.6773 29.7636 84.3443 29.3349 C84.1403 29.0732 84.1963 28.3427 84.2803 27.2802 C84.2803 27.2802 85.2523 18.2578 85.2523 18.2578 C85.2523 18.2578 94.5153 18.2578 94.5153 18.2578 C94.5153 18.2578 94.7623 15.1269 94.7623 15.1269 Z M20.2763 0.717775 C20.2763 0.717775 17.414 33.4922 17.414 33.4922 C17.414 33.4922 10.1103 33.4922 10.1103 33.4922 C10.1103 33.4922 11.3847 20.4179 11.3847 20.4179 C11.3847 20.4179 8.5781 20.4179 8.5781 20.4179 C8.5781 20.4179 7.3037 33.4922 7.3037 33.4922 C7.3037 33.4922 0 33.4922 0 33.4922 C0 33.4922 2.8623 0.717775 2.8623 0.717775 C2.8623 0.717775 10.165 0.717775 10.165 0.717775 C10.165 0.717775 9.1465 13.9092 9.1465 13.9092 C9.1465 13.9092 11.9531 13.9092 11.9531 13.9092 C11.9531 13.9092 12.9726 0.717775 12.9726 0.717775 C12.9726 0.717775 20.2763 0.717775 20.2763 0.717775 Z M53.7783 0.717775 C53.7783 0.717775 53.2656 6.58789 53.2656 6.58789 C53.2656 6.58789 48.7763 6.58789 48.7763 6.58789 C48.7763 6.58789 46.4267 33.4922 46.4267 33.4922 C46.4267 33.4922 38.8633 33.4922 38.8633 33.4922 C38.8633 33.4922 41.2129 6.58789 41.2129 6.58789 C41.2129 6.58789 36.7812 6.58789 36.7812 6.58789 C36.7812 6.58789 37.2929 0.717775 37.2929 0.717775 C37.2929 0.717775 53.7783 0.717775 53.7783 0.717775 Z M77.1323 0.717775 C77.1323 0.717775 74.2703 33.4922 74.2703 33.4922 C74.2703 33.4922 67.6601 33.4922 67.6601 33.4922 C67.6601 33.4922 69.6293 13.0693 69.6293 13.0693 C69.6293 13.0693 65.0547 33.4922 65.0547 33.4922 C65.0547 33.4922 60.3515 33.4922 60.3515 33.4922 C60.3515 33.4922 59.457 12.9717 59.457 12.9717 C59.457 12.9717 57.5556 33.4922 57.5556 33.4922 C57.5556 33.4922 50.9463 33.4922 50.9463 33.4922 C50.9463 33.4922 53.8086 0.717775 53.8086 0.717775 C53.8086 0.717775 63.5801 0.717775 63.5801 0.717775 C63.6797 2.45605 64.0312 18.7636 64.0312 18.7636 C64.0312 18.7636 67.2334 0.717775 67.2334 0.717775 C67.2334 0.717775 77.1323 0.717775 77.1323 0.717775 Z M105.779 2.75977 C105.779 2.75977 105.45 6.52442 105.45 6.52442 C105.45 6.52442 107.548 6.52442 107.548 6.52442 C107.548 6.52442 107.218 10.289 107.218 10.289 C107.218 10.289 105.121 10.289 105.121 10.289 C105.121 10.289 103.681 26.7744 103.681 26.7744 C103.545 28.3418 103.553 29.2148 103.711 29.3945 C103.868 29.5742 104.579 29.6631 105.843 29.6631 C105.843 29.6631 105.509 33.4922 105.509 33.4922 C105.509 33.4922 102.545 33.4922 102.545 33.4922 C100.87 33.4922 99.6823 33.4228 98.9793 33.2851 C98.2753 33.1484 97.6723 32.832 97.1703 32.3349 C96.6673 31.8388 96.3763 31.2715 96.2993 30.6318 C96.2223 29.9912 96.2873 28.4883 96.4933 26.1201 C96.4933 26.1201 97.8763 10.289 97.8763 10.289 C97.8763 10.289 96.3503 10.289 96.3503 10.289 C96.3503 10.289 96.6793 6.52442 96.6793 6.52442 C96.6793 6.52442 98.2053 6.52442 98.2053 6.52442 C98.2053 6.52442 98.5343 2.75977 98.5343 2.75977 C98.5343 2.75977 105.779 2.75977 105.779 2.75977 Z M135.435 0.717775 C135.435 0.717775 133.086 27.622 133.086 27.622 C133.086 27.622 137.662 27.622 137.662 27.622 C137.662 27.622 137.149 33.4922 137.149 33.4922 C137.149 33.4922 125.01 33.4922 125.01 33.4922 C125.01 33.4922 127.873 0.717775 127.873 0.717775 C127.873 0.717775 135.435 0.717775 135.435 0.717775 Z M156.738 6.2295 C157.027 6.53418 157.124 7.19336 157.029 8.2041 C157.029 8.2041 156.625 12.501 156.625 12.501 C156.521 13.5976 156.316 14.3213 156.009 14.6679 C155.702 15.0156 155.195 15.1894 154.487 15.1894 C154.329 15.1894 154.14 15.1836 153.923 15.1719 C153.923 15.1719 154.805 5.77247 154.805 5.77247 C155.805 5.77247 156.45 5.9248 156.738 6.2295 Z M144.442 33.541 C144.442 33.541 152.196 33.541 152.196 33.541 C152.196 33.541 153.441 20.292 153.441 20.292 C153.441 20.292 155.523 20.292 155.523 20.292 C157.218 20.292 158.612 20.0595 159.707 19.5937 C160.799 19.1289 161.977 18.4609 162.059 17.5918 C162.534 16.7226 162.861 15.3398 163.039 13.4424 C163.039 13.4424 163.458 8.98828 163.458 8.98828 C163.632 7.12793 163.66 5.7539 163.541 4.86622 C163.422 3.97852 163.105 3.22265 162.593 2.59765 C162.081 1.97364 161.272 1.49707 160.168 1.16602 C159.062 0.834965 157.455 0.669925 155.342 0.669925 C155.342 0.669925 147.532 0.669925 147.532 0.669925 C147.532 0.669925 144.442 33.541 144.442 33.541 Z M174.737 6.20898 C175.047 6.50098 175.158 7.11329 175.07 8.04688 C175.07 8.04688 175.061 8.14258 175.061 8.14258 C174.938 9.44143 174.394 13.3662 174.024 13.6015 C173.653 13.8388 173.032 13.957 172.163 13.957 C172.163 13.957 172.932 5.77247 172.932 5.77247 C173.827 5.77247 174.427 5.91796 174.737 6.20898 Z M162.569 33.541 C162.569 33.541 170.322 33.541 170.322 33.541 C170.322 33.541 171.725 18.6094 171.725 18.6094 C172.791 18.6094 173.431 18.7988 173.646 19.1787 C173.862 19.5586 173.895 20.5439 173.746 22.1357 C173.746 22.1357 172.674 33.541 172.674 33.541 C172.674 33.541 179.877 33.541 179.877 33.541 C179.877 33.541 180.615 25.6933 180.615 25.6933 C180.841 23.292 181.056 20.2998 180.978 19.7666 C180.9 19.2334 180.628 18.6494 180.161 18.0117 C179.694 17.375 178.714 16.8662 177.218 16.4863 C178.924 16.3271 180.1 15.8506 180.751 15.0566 C181.4 14.2627 181.988 11.0791 182.205 8.7705 C182.443 6.24122 182.207 4.39942 181.5 3.24511 C180.792 2.09082 179.803 1.37305 178.535 1.0918 C177.266 0.810545 174.803 0.669925 171.145 0.669925 C171.145 0.669925 165.658 0.669925 165.658 0.669925 C165.658 0.669925 162.569 33.541 162.569 33.541 Z M192.443 25.0781 C192.279 26.8242 192.1 27.9287 191.909 28.3926 C191.716 28.8574 191.354 29.0888 190.821 29.0888 C190.3 29.0888 189.989 28.8877 189.885 28.4844 C189.78 28.082 189.809 27.0195 189.971 25.2978 C189.971 25.2978 191.569 8.29492 191.569 8.29492 C191.713 6.76954 191.907 5.85058 192.153 5.53907 C192.399 5.22852 192.726 5.07128 193.135 5.07128 C193.618 5.07128 193.919 5.26367 194.037 5.64843 C194.156 6.0332 194.15 6.91602 194.02 8.29492 C194.02 8.29492 192.443 25.0781 192.443 25.0781 Z M201.336 12.9599 C201.624 9.90042 201.75 7.75977 201.718 6.53515 C201.685 5.31251 201.331 4.18067 200.655 3.14062 C199.978 2.10058 199.028 1.32032 197.804 0.799805 C196.581 0.279295 195.171 0.019531 193.573 0.019531 C191.888 0.019531 190.387 0.295895 189.069 0.845705 C187.752 1.39648 186.673 2.18652 185.833 3.21386 C184.992 4.24218 184.443 5.37598 184.185 6.61817 C183.926 7.86035 183.658 9.97462 183.377 12.9599 C183.377 12.9599 182.602 21.2011 182.602 21.2011 C182.315 24.2607 182.187 26.4023 182.219 27.625 C182.252 28.8496 182.606 29.9814 183.283 31.0205 C183.959 32.0615 184.909 32.8408 186.132 33.3603 C187.356 33.8808 188.767 34.1406 190.366 34.1406 C192.049 34.1406 193.549 33.8652 194.868 33.3154 C196.186 32.7656 197.264 31.9756 198.105 30.9482 C198.945 29.9199 199.494 28.7851 199.752 27.5429 C200.01 26.3008 200.28 24.1865 200.561 21.2011 C200.561 21.2011 201.336 12.9599 201.336 12.9599 Z M250.997 3.25098 C250.502 2.50001 249.562 1.62501 248.258 1.00001 C247.17 0.498045 245.84 0.125 244.36 0.125 C244.247 0.125 244.145 0 244.032 0 C241.983 0 240.114 0.498045 238.663 1.37501 C237.214 2.25001 236.179 3.50001 235.578 5.00098 C234.976 6.50098 234.517 8.87696 234.224 11.8779 C234.224 11.8779 233.114 23.2558 233.114 23.2558 C232.895 25.5068 232.939 27.3818 233.069 28.3828 C233.2 29.3828 233.659 30.5078 234.244 31.5088 C234.841 32.3838 235.792 33.1338 236.893 33.5088 C237.882 33.8838 239.337 34.1338 241.043 34.1338 C241.157 34.1338 241.157 34.1338 241.272 34.1338 C242.636 34.1338 243.913 33.8838 245.087 33.5088 C246.147 33.1338 247.245 32.3838 248.025 31.3828 C248.805 30.3828 249.598 29.2578 249.935 28.1328 C250.26 27.1318 250.557 25.2568 250.801 22.7558 C250.801 22.7558 251.863 11.8779 251.863 11.8779 C252.106 9.37692 252.062 7.50196 251.944 6.37598 C251.826 5.25098 251.481 4.12598 250.997 3.25098 Z M243.035 25.3818 C242.888 26.8818 242.665 28.0078 242.388 28.5078 C242.238 28.8828 241.884 29.0078 241.531 29.1328 C241.531 29.1328 241.417 29.1328 241.303 29.1328 C240.848 29.1328 240.418 28.8828 240.341 28.5078 C240.251 28.2568 240.258 27.0068 240.442 25.1318 C240.442 25.1318 242.015 9.00196 242.015 9.00196 C242.174 7.37696 242.397 6.25098 242.56 5.75001 C242.722 5.25098 243.202 5.00098 243.658 5.00098 C243.771 5.00098 243.873 5.12598 243.873 5.12598 C244.328 5.12598 244.645 5.37598 244.722 5.75001 C244.799 6.12598 244.803 7.25196 244.632 9.00196 C244.632 9.00196 243.035 25.3818 243.035 25.3818 Z M202.731 1.15136 C202.731 1.15136 202.038 1.15136 202.038 1.15136 C202.038 1.15136 202.038 0.905275 202.038 0.905275 C202.038 0.905275 203.711 0.905275 203.711 0.905275 C203.711 0.905275 203.711 1.15136 203.711 1.15136 C203.711 1.15136 203.017 1.15136 203.017 1.15136 C203.017 1.15136 203.017 2.97364 203.017 2.97364 C203.017 2.97364 202.731 2.97364 202.731 2.97364 C202.731 2.97364 202.731 1.15136 202.731 1.15136 Z M205.948 1.11133 C205.948 1.11133 205.942 1.11133 205.942 1.11133 C205.942 1.11133 205.28 2.97364 205.28 2.97364 C205.28 2.97364 205.01 2.97364 205.01 2.97364 C205.01 2.97364 204.348 1.11133 204.348 1.11133 C204.348 1.11133 204.343 1.11133 204.343 1.11133 C204.343 1.11133 204.343 2.97364 204.343 2.97364 C204.343 2.97364 204.056 2.97364 204.056 2.97364 C204.056 2.97364 204.056 0.905275 204.056 0.905275 C204.056 0.905275 204.57 0.905275 204.57 0.905275 C204.57 0.905275 205.166 2.60938 205.166 2.60938 C205.166 2.60938 205.172 2.60938 205.172 2.60938 C205.172 2.60938 205.756 0.905275 205.756 0.905275 C205.756 0.905275 206.234 0.905275 206.234 0.905275 C206.234 0.905275 206.234 2.97364 206.234 2.97364 C206.234 2.97364 205.948 2.97364 205.948 2.97364 C205.948 2.97364 205.948 1.11133 205.948 1.11133 Z M220.088 23.5517 C219.97 24.8701 219.436 29.0498 219.087 29.3506 C218.736 29.6504 218.412 29.7998 218.112 29.7998 C217.616 29.7998 217.279 29.6064 217.1 29.2168 C216.921 28.8291 217.189 24.6347 217.301 23.375 C217.301 23.375 217.763 18.2002 217.763 18.2002 C217.856 17.1513 218.031 16.4492 218.289 16.0898 C218.546 15.7304 218.917 15.5508 219.4 15.5508 C219.896 15.5508 220.237 15.7392 220.423 16.1162 C220.607 16.4922 220.656 17.1875 220.565 18.2002 C220.565 18.2002 220.088 23.5517 220.088 23.5517 Z M228.188 3.8164 C227.74 2.63867 226.902 1.72657 225.675 1.0791 C224.449 0.430665 222.834 0.107422 220.831 0.107422 C219.205 0.107422 217.748 0.363285 216.459 0.875975 C215.17 1.38867 214.121 2.15626 213.31 3.18067 C212.501 4.20605 211.994 5.29296 211.791 6.44043 C211.589 7.58886 211.245 10.8838 210.941 14.2881 C210.941 14.2881 210.588 18.2451 210.588 18.2451 C210.306 21.4013 210.173 23.5273 210.187 24.622 C210.202 25.7177 210.196 30.1318 210.773 31.1269 C211.35 32.123 212.227 32.8847 213.406 33.415 C214.584 33.9443 216.133 34.2099 218.054 34.2099 C219.597 34.2099 220.97 33.9795 222.172 33.5205 C223.374 33.0615 224.343 32.417 225.084 31.5859 C225.824 30.7558 226.314 29.8515 226.554 28.874 C226.541 28.9277 227.304 23.0381 227.574 20.0156 C227.574 20.0156 227.687 18.7549 227.687 18.7549 C227.837 17.0713 227.821 15.7344 227.638 14.7451 C227.457 13.7558 226.898 12.9082 225.963 12.2011 C225.027 11.4941 223.907 11.1406 222.604 11.1406 C221.57 11.1406 220.683 11.3301 219.945 11.708 C219.207 12.0849 218.622 12.6523 218.19 13.4072 C218.19 13.4072 218.595 8.86425 218.595 8.86425 C218.691 7.7959 218.862 6.0664 218.928 5.71485 C218.995 5.3623 219.153 5.07421 219.403 4.85157 C219.653 4.6289 219.958 4.5166 220.316 4.5166 C220.742 4.5166 221.069 4.63477 221.296 4.8711 C221.523 5.10645 221.635 5.39942 221.633 5.7461 C221.631 6.09473 221.479 7.9541 221.36 9.28612 C221.36 9.28612 228.531 9.28612 228.531 9.28612 C228.691 7.49708 228.637 4.99414 228.188 3.8164 Z M228.456 30.5654 C228.456 30.5654 228.11 34.3037 228.11 34.3037 C228.11 34.3037 231.487 34.3037 231.487 34.3037 C231.487 34.3037 231.834 30.5654 231.834 30.5654 C231.834 30.5654 228.456 30.5654 228.456 30.5654 Z" />
 </g>
 <g transform="translate(0.160156, 1.49902)" style="fill:#ffffff; fill-rule:nonzero; stroke:none; stroke-width:1; stroke-linecap:butt; stroke-linejoin:miter; stroke-dasharray:none;" >
  <path d="M25.1757 25.1758 C25.1757 25.1758 25.1757 0 25.1757 0 C25.1757 0 0 0 0 0 C0 0 0 25.1758 0 25.1758 C0 25.1758 25.1757 25.1758 25.1757 25.1758 Z" />
 </g>
 <g transform="translate(0.160156, 15.1523)" style="fill:#d61e15; fill-rule:nonzero; stroke:none; stroke-width:1; stroke-linecap:butt; stroke-linejoin:miter; stroke-dasharray:none;" >
  <path d="M17.3916 6.9473 C15.9101 7.3614 14.29 7.5899 12.5908 7.5899 C6.11328 7.5899 0.769532 4.2774 0 0 C0 0 0 11.5225 0 11.5225 C0 11.5225 18.8818 11.5225 18.8818 11.5225 C18.9228 11.3086 18.9599 11.0713 18.9931 10.8057 C19.208 9.0713 18.5283 7.8682 17.3916 6.9473 Z" />
 </g>
 <g transform="translate(0.160156, 1.49902)" style="fill:#d61e15; fill-rule:nonzero; stroke:none; stroke-width:1; stroke-linecap:butt; stroke-linejoin:miter; stroke-dasharray:none;" >
  <path d="M12.5908 3.93457 C19.0527 3.93457 24.3867 7.23047 25.1757 11.4922 C25.1757 11.4922 25.1757 0 25.1757 0 C25.1757 0 0 0 0 0 C0 0 0 11.5235 0 11.5235 C0.769532 7.2461 6.11328 3.93457 12.5908 3.93457 Z" />
 </g>
 <g transform="translate(19.7588, 15.1846)" style="fill:#d61e15; fill-rule:nonzero; stroke:none; stroke-width:1; stroke-linecap:butt; stroke-linejoin:miter; stroke-dasharray:none;" >
  <path d="M5.5771 0 C5.1103 2.5224 3.0508 4.706 0.1074 6.0683 C0.4863 6.9199 0.6601 7.8154 0.6601 8.7422 C0.6601 9.9277 0.3838 10.8047 0 11.4902 C0 11.4902 5.5771 11.4902 5.5771 11.4902 C5.5771 11.4902 5.5771 0 5.5771 0 Z" />
 </g>
 <g transform="translate(7.62402, 5.71387)" style="fill:#d61e15; fill-rule:nonzero; stroke:none; stroke-width:1; stroke-linecap:butt; stroke-linejoin:miter; stroke-dasharray:none;" >
  <path d="M0 5.15623 C0 8.55863 4.35258 9.98733 6.92388 11.0957 C8.22948 11.6884 9.65528 12.2841 10.8408 13.5049 C11.0664 13.7363 11.2696 13.9726 11.4531 14.2138 C13.3653 12.7744 14.5684 10.6914 14.5684 8.37403 C14.5684 4.51273 11.2305 1.30176 6.82808 0.63379 C2.55368 0 0 2.36523 0 5.15623 Z" />
 </g>
 <g transform="translate(3.31055, 6.83105)" style="fill:#d61e15; fill-rule:nonzero; stroke:none; stroke-width:1; stroke-linecap:butt; stroke-linejoin:miter; stroke-dasharray:none;" >
  <path d="M1.7666 5.70115 C1.7666 3.19925 3.33691 1.04688 5.78613 0 C2.38672 1.19043 0 3.99125 0 7.25685 C0 11.6015 4.22656 15.1241 9.44045 15.1241 C10.7402 15.1241 11.9785 14.9052 13.1054 14.5087 C12.0537 13.915 10.8115 13.4433 9.57615 12.9814 C5.26465 11.3671 1.7666 9.22265 1.7666 5.70115 Z" />
 </g>
 <g transform="translate(0.0664063, 28.7422)" style="fill:#161413; fill-rule:nonzero; stroke:none; stroke-width:1; stroke-linecap:butt; stroke-linejoin:miter; stroke-dasharray:none;" >
  <path d="M0.155274 4.4433 C0.375977 4.5703 0.754883 4.6582 1.05957 4.6582 C1.5625 4.6582 1.81347 4.3974 1.81347 4.0361 C1.81347 3.6445 1.56543 3.4433 1.10058 3.1465 C0.348633 2.6865 0.0644527 2.1113 0.0644527 1.6133 C0.0644527 0.7314 0.650391 0 1.80078 0 C2.16601 0 2.50586 0.1016 2.66504 0.1973 C2.66504 0.1973 2.49414 1.1172 2.49414 1.1172 C2.33789 1.0195 2.10254 0.9297 1.79492 0.9297 C1.33789 0.9297 1.11914 1.206 1.11914 1.4961 C1.11914 1.8252 1.28418 1.999 1.87304 2.3545 C2.60351 2.791 2.86816 3.3467 2.86816 3.9219 C2.86816 4.9307 2.12597 5.5879 1.05468 5.5879 C0.611328 5.5879 0.183594 5.4766 0 5.3672 C0 5.3672 0.155274 4.4433 0.155274 4.4433 Z" />
 </g>
 <g transform="translate(3.32324, 30.2188)" style="fill:#161413; fill-rule:nonzero; stroke:none; stroke-width:1; stroke-linecap:butt; stroke-linejoin:miter; stroke-dasharray:none;" >
  <path d="M1.53418 3.3291 C1.15918 3.3291 1.04883 2.748 1.04883 2.0615 C1.04883 1.5039 1.13281 0.8066 1.52539 0.8066 C1.88965 0.8066 1.98047 1.5039 1.98047 2.0615 C1.98047 2.6513 1.88965 3.3291 1.54199 3.3291 C1.54199 3.3291 1.53418 3.3291 1.53418 3.3291 Z M1.53223 4.1357 C2.12989 4.1357 3.04492 3.7255 3.04492 2.0546 C3.04492 0.7861 2.4834 0 1.54199 0 C0.74903 0 0 0.6396 0 2.08 C0 3.3876 0.57031 4.1357 1.52344 4.1357 C1.52344 4.1357 1.53223 4.1357 1.53223 4.1357 Z" />
 </g>
 <g transform="translate(6.52539, 28.5723)" style="fill:#161413; fill-rule:nonzero; stroke:none; stroke-width:1; stroke-linecap:butt; stroke-linejoin:miter; stroke-dasharray:none;" >
  <path d="M0.53809 5.7138 C0.53809 5.7138 0.53809 2.4746 0.53809 2.4746 C0.53809 2.4746 0 2.4746 0 2.4746 C0 2.4746 0 1.7158 0 1.7158 C0 1.7158 0.53809 1.7158 0.53809 1.7158 C0.53809 1.7158 0.53809 1.5576 0.53809 1.5576 C0.53809 1.1074 0.63184 0.6963 0.94922 0.3701 C1.18359 0.1259 1.52344 0 1.90332 0 C2.17871 0 2.39356 0.041 2.54297 0.0898 C2.54297 0.0898 2.42578 0.9257 2.42578 0.9257 C2.33887 0.8935 2.22656 0.872 2.09375 0.872 C1.74024 0.872 1.60547 1.1865 1.60547 1.5322 C1.60547 1.5322 1.60547 1.7158 1.60547 1.7158 C1.60547 1.7158 2.29688 1.7158 2.29688 1.7158 C2.29688 1.7158 2.29688 2.4746 2.29688 2.4746 C2.29688 2.4746 1.60547 2.4746 1.60547 2.4746 C1.60547 2.4746 1.60547 5.7138 1.60547 5.7138 C1.60547 5.7138 0.53809 5.7138 0.53809 5.7138 Z" />
 </g>
 <g transform="translate(8.88086, 29.251)" style="fill:#161413; fill-rule:nonzero; stroke:none; stroke-width:1; stroke-linecap:butt; stroke-linejoin:miter; stroke-dasharray:none;" >
  <path d="M1.53804 0 C1.53804 0 1.53804 1.0371 1.53804 1.0371 C1.53804 1.0371 2.31934 1.0371 2.31934 1.0371 C2.31934 1.0371 2.31934 1.7959 2.31934 1.7959 C2.31934 1.7959 1.53804 1.7959 1.53804 1.7959 C1.53804 1.7959 1.53804 3.6181 1.53804 3.6181 C1.53804 4.081 1.73044 4.1953 1.94144 4.1953 C2.04594 4.1953 2.12694 4.1875 2.22364 4.1709 C2.22364 4.1709 2.23144 5.0088 2.23144 5.0088 C2.08394 5.0498 1.85744 5.0791 1.57814 5.0791 C1.27054 5.0791 1 5.0078 0.80762 4.8242 C0.58887 4.6152 0.46973 4.3066 0.46973 3.6806 C0.46973 3.6806 0.46973 1.7959 0.46973 1.7959 C0.46973 1.7959 0 1.7959 0 1.7959 C0 1.7959 0 1.0371 0 1.0371 C0 1.0371 0.46973 1.0371 0.46973 1.0371 C0.46973 1.0371 0.46973 0.332 0.46973 0.332 C0.46973 0.332 1.53804 0 1.53804 0 Z" />
 </g>
 <g transform="translate(11.4316, 28.7197)" style="fill:#161413; fill-rule:nonzero; stroke:none; stroke-width:1; stroke-linecap:butt; stroke-linejoin:miter; stroke-dasharray:none;" >
  <path d="M1.7715 4.7041 C1.2989 4.7041 1.1006 3.9102 1.1133 2.791 C1.1065 1.7549 1.3311 0.9297 1.7715 0.9297 C2.2432 0.9297 2.3975 1.7422 2.3975 2.7715 C2.3975 3.9102 2.2149 4.7041 1.7793 4.7041 C1.7793 4.7041 1.7715 4.7041 1.7715 4.7041 Z M3.7657 5.6563 C3.419 5.5264 3.0372 5.4043 2.6875 5.2471 C2.6875 5.2471 2.6875 5.21 2.6875 5.21 C3.2041 4.9278 3.5108 4.085 3.5108 2.7198 C3.5108 1.461 3.1485 0 1.8204 0 C0.5967 0 0 1.3252 0 2.8037 C0 4.5967 0.6534 5.6338 1.7227 5.6338 C1.7686 5.6338 1.8575 5.6836 1.9776 5.75 C2.3887 5.9912 2.92 6.2705 3.3887 6.4639 C3.3887 6.4639 3.7657 5.6563 3.7657 5.6563 Z" />
 </g>
 <g transform="translate(15.4893, 30.2871)" style="fill:#161413; fill-rule:nonzero; stroke:none; stroke-width:1; stroke-linecap:butt; stroke-linejoin:miter; stroke-dasharray:none;" >
  <path d="M2.9541 2.7783 C2.9541 3.2061 2.9716 3.625 2.9863 3.999 C2.9863 3.999 2.0664 3.999 2.0664 3.999 C2.0664 3.999 2.0087 3.5791 2.0087 3.5791 C2.0087 3.5791 1.9921 3.5791 1.9921 3.5791 C1.8066 3.8486 1.4795 4.0664 1.0615 4.0664 C0.3037 4.0664 0 3.5039 0 2.4258 C0 2.4258 0 0 0 0 C0 0 1.0683 0 1.0683 0 C1.0683 0 1.0683 2.3067 1.0683 2.3067 C1.0683 2.8311 1.1738 3.1709 1.4716 3.1709 C1.6552 3.1709 1.7734 3.0313 1.8242 2.8965 C1.8603 2.8193 1.8857 2.6914 1.8857 2.5557 C1.8857 2.5557 1.8857 0 1.8857 0 C1.8857 0 2.9541 0 2.9541 0 C2.9541 0 2.9541 2.7783 2.9541 2.7783 Z" />
 </g>
 <g transform="translate(18.9014, 30.2197)" style="fill:#161413; fill-rule:nonzero; stroke:none; stroke-width:1; stroke-linecap:butt; stroke-linejoin:miter; stroke-dasharray:none;" >
  <path d="M1.8496 2.8194 C1.8496 2.8897 1.8427 2.9541 1.8271 3.0059 C1.7539 3.2481 1.5654 3.3506 1.3925 3.3506 C1.2295 3.3506 1.0107 3.2041 1.0107 2.8076 C1.0107 2.25 1.499 2.1289 1.8496 2.1221 C1.8496 2.1221 1.8496 2.8194 1.8496 2.8194 Z M2.8965 1.666 C2.8965 0.8516 2.6982 0 1.4931 0 C0.9394 0 0.4765 0.1787 0.2558 0.3057 C0.2558 0.3057 0.4502 1.0274 0.4502 1.0274 C0.6894 0.8799 0.9453 0.793 1.2607 0.793 C1.6357 0.793 1.8174 1.0244 1.8174 1.3418 C1.8174 1.3418 1.8174 1.4317 1.8174 1.4317 C0.9218 1.4395 0 1.8692 0 2.9229 C0 3.6319 0.4472 4.1348 1.0507 4.1348 C1.4023 4.1348 1.7099 3.9844 1.9267 3.6768 C1.9267 3.6768 1.9443 3.6768 1.9443 3.6768 C1.9443 3.6768 2.0019 4.0664 2.0019 4.0664 C2.0019 4.0664 2.955 4.0664 2.955 4.0664 C2.9091 3.7959 2.8965 3.4707 2.8965 3.1533 C2.8965 3.1533 2.8965 1.666 2.8965 1.666 Z" />
 </g>
 <g transform="translate(22.3252, 28.6387)" style="fill:#161413; fill-rule:nonzero; stroke:none; stroke-width:1; stroke-linecap:butt; stroke-linejoin:miter; stroke-dasharray:none;" >
  <path d="M1.9668 4.2353 C1.9668 4.3379 1.9531 4.4238 1.9307 4.4863 C1.8477 4.7695 1.6982 4.8408 1.5596 4.8408 C1.2637 4.8408 1.0566 4.4433 1.0566 3.6787 C1.0566 3.0254 1.1963 2.4775 1.5703 2.4775 C1.7881 2.4775 1.9131 2.7011 1.9521 2.9463 C1.9668 3.0244 1.9668 3.1093 1.9668 3.1806 C1.9668 3.1806 1.9668 4.2353 1.9668 4.2353 Z M1.9668 0 C1.9668 0 1.9668 1.9804 1.9668 1.9804 C1.9668 1.9804 1.9502 1.9804 1.9502 1.9804 C1.8457 1.7558 1.6328 1.5801 1.2764 1.5801 C0.6064 1.5801 0 2.2578 0 3.6562 C0 4.7754 0.3887 5.7158 1.2353 5.7158 C1.6006 5.7158 1.9199 5.4834 2.0664 5.1992 C2.0664 5.1992 2.0859 5.1992 2.0859 5.1992 C2.0859 5.1992 2.1445 5.6474 2.1445 5.6474 C2.1445 5.6474 3.0654 5.6474 3.0654 5.6474 C3.0508 5.2802 3.0322 4.8408 3.0322 4.4629 C3.0322 4.4629 3.0322 0 3.0322 0 C3.0322 0 1.9668 0 1.9668 0 Z" />
 </g>
 <g transform="translate(25.8828, 28.6563)" style="fill:#161413; fill-rule:nonzero; stroke:none; stroke-width:1; stroke-linecap:butt; stroke-linejoin:miter; stroke-dasharray:none;" >
  <path d="M0.2256 0.1269 C0.2256 0.1269 0 0.1269 0 0.1269 C0 0.1269 0 0 0 0 C0 0 0.5908 0 0.5908 0 C0.5908 0 0.5908 0.1269 0.5908 0.1269 C0.5908 0.1269 0.3652 0.1269 0.3652 0.1269 C0.3652 0.1269 0.3652 1.2324 0.3652 1.2324 C0.3652 1.2324 0.2256 1.2324 0.2256 1.2324 C0.2256 1.2324 0.2256 0.1269 0.2256 0.1269 Z" />
 </g>
 <g transform="translate(26.4971, 28.6553)" style="fill:#161413; fill-rule:nonzero; stroke:none; stroke-width:1; stroke-linecap:butt; stroke-linejoin:miter; stroke-dasharray:none;" >
  <path d="M0.7744 0.7021 C0.7656 0.539 0.7578 0.3593 0.7617 0.2187 C0.7617 0.2187 0.7539 0.2187 0.7539 0.2187 C0.7275 0.3564 0.6953 0.5039 0.6572 0.6484 C0.6572 0.6484 0.5049 1.2256 0.5049 1.2256 C0.5049 1.2256 0.416 1.2256 0.416 1.2256 C0.416 1.2256 0.2715 0.6709 0.2715 0.6709 C0.2314 0.5136 0.1953 0.3613 0.1709 0.2187 C0.1709 0.2187 0.165 0.2187 0.165 0.2187 C0.166 0.3642 0.1572 0.5371 0.1494 0.7119 C0.1494 0.7119 0.1269 1.2334 0.1269 1.2334 C0.1269 1.2334 0 1.2334 0 1.2334 C0 1.2334 0.0732 0 0.0732 0 C0.0732 0 0.2265 0 0.2265 0 C0.2265 0 0.3701 0.5644 0.3701 0.5644 C0.4111 0.7265 0.4424 0.8476 0.4687 0.9883 C0.4687 0.9883 0.4736 0.9883 0.4736 0.9883 C0.498 0.8476 0.5254 0.7295 0.5644 0.5644 C0.5644 0.5644 0.7041 0 0.7041 0 C0.7041 0 0.8613 0 0.8613 0 C0.8613 0 0.9316 1.2334 0.9316 1.2334 C0.9316 1.2334 0.8008 1.2334 0.8008 1.2334 C0.8008 1.2334 0.7744 0.7021 0.7744 0.7021 Z" />
 </g>
</svg>
